PathFileType	4	(X/Y/Z)	/Users/niels/Desktop/University/Third Semester/Perception and Action/Exam/Gymnastics Motion Tracking/Code for Gym Tracking/Analyzed Data/Webcam_Backflip/id1_4_trajectory_Sports2D/id1_4_trajectory_Sports2D_px_person00.trc
DataRate	CameraRate	NumFrames	NumMarkers	Units	OrigDataRate	OrigDataStartFrame	OrigNumFrames
29.874476987447697	29.874476987447697	8	22	m	29.874476987447697	0	239
Frame#	Time	Hip			RHip			RKnee			RAnkle			RBigToe			RSmallToe			RHeel			LHip			LKnee			LAnkle			LBigToe			LSmallToe			LHeel			Neck			Head			Nose			RShoulder			RElbow			RWrist			LShoulder			LElbow			LWrist		
		X1	Y1	Z1	X2	Y2	Z2	X3	Y3	Z3	X4	Y4	Z4	X5	Y5	Z5	X6	Y6	Z6	X7	Y7	Z7	X8	Y8	Z8	X9	Y9	Z9	X10	Y10	Z10	X11	Y11	Z11	X12	Y12	Z12	X13	Y13	Z13	X14	Y14	Z14	X15	Y15	Z15	X16	Y16	Z16	X17	Y17	Z17	X18	Y18	Z18	X19	Y19	Z19	X20	Y20	Z20	X21	Y21	Z21	X22	Y22	Z22
0	0.0	0.9167881330502318	-0.6011625893735658	0.0	0.9153148439275006	-0.5982116241022074	0.0	0.9197415394130881	-0.7000389530938196	0.0	0.9064568469905284	-0.8092506673006754	0.0	0.950721201363543	-0.828444525482086	0.0	0.9433450592848664	-0.8328734725672385	0.0	0.8961261518250749	-0.826963044838703	0.0	0.9241684443021212	-0.5967354799734007	0.0	0.9197391294717204	-0.6985652270981754	0.0	0.9094127633870497	-0.8063030112550348	0.0	0.9477779081188458	-0.8254868203537149	0.0	0.9433460894392144	-0.8240135341324237	0.0	0.8961348922221788	-0.8225396063035425	0.0	0.9315495829337841	-0.4402914268019849	0.0	0.9699275325015336	-0.373879073573748	0.0	0.9713994400555328	-0.41815074470478725	0.0	0.9182720126104905	-0.45652662945671674	0.0	0.9522212249644829	-0.5244130541809436	0.0	1.0201073530746687	-0.5450640368973408	0.0	0.9153059615172816	-0.4565227968286994	0.0	0.9315456147857979	-0.5214583169689412	0.0	0.9285979582388733	-0.5435911945993461	0.0
1	0.033473389355742296	0.9173720353853831	-0.6009735672472857	0.0	0.9157887718729669	-0.598946821209406	0.0	0.9198586866623784	-0.7002132741182777	0.0	0.9064683374705939	-0.8089468165777463	0.0	0.9501420745849509	-0.8278876615291764	0.0	0.9434455037687456	-0.8323785873600148	0.0	0.8963172539395335	-0.8269764601423145	0.0	0.9248745231244857	-0.597507192547746	0.0	0.9199658823626553	-0.6988097463752752	0.0	0.909400938446591	-0.8060211031694986	0.0	0.9477582606612448	-0.8253944460262826	0.0	0.942966046644761	-0.8240000169475035	0.0	0.8963992433735066	-0.8223188363557548	0.0	0.9310804392658109	-0.44027822451657284	0.0	0.9694881860370855	-0.3739231332899339	0.0	0.9713056572035008	-0.4183698165527331	0.0	0.9182054708623733	-0.4568266954912363	0.0	0.9511481163413209	-0.5243876921054011	0.0	1.0191975890194087	-0.5451378869641459	0.0	0.9143852050521198	-0.4563864789941525	0.0	0.9303415289533009	-0.5218502803140512	0.0	0.9295738833047026	-0.5435827070810114	0.0
2	0.06694677871148459	0.9177714455057043	-0.6007897916333829	0.0	0.9161366231133985	-0.5994766973363798	0.0	0.9199463189136786	-0.7003562061290999	0.0	0.9064294074940494	-0.8087030714149144	0.0	0.9495963244811509	-0.8273568580582722	0.0	0.9434464049678984	-0.8319212272942904	0.0	0.8964493738786021	-0.8269819851122945	0.0	0.9253878917483394	-0.5980874211997599	0.0	0.9201549659663558	-0.6990684630237423	0.0	0.9093232058840324	-0.8057824616666451	0.0	0.9477548558456241	-0.8253159155841993	0.0	0.94267674284872	-0.8239769747707484	0.0	0.896592039622442	-0.8221634103253375	0.0	0.9306439022265605	-0.44027466420749384	0.0	0.9691479189810533	-0.3740512818049915	0.0	0.9711685327229994	-0.4186280575977793	0.0	0.9182130265788023	-0.4570948572818489	0.0	0.950185961740396	-0.5243653865368969	0.0	1.01832375576798	-0.5453442412910536	0.0	0.9136652154325695	-0.4563191439561325	0.0	0.9295015569003762	-0.522240848019596	0.0	0.9317874230511725	-0.543692174876072	0.0
3	0.1004201680672269	0.9179116993376211	-0.6006453697820032	0.0	0.9162960662894165	-0.5997274304574453	0.0	0.9199861413730138	-0.7004707705565443	0.0	0.9063507395690268	-0.808600335897341	0.0	0.9491705873062425	-0.8269156888002809	0.0	0.943367375970751	-0.8315544431070198	0.0	0.8965182377779648	-0.8269963743953118	0.0	0.9256015316548253	-0.598411857795602	0.0	0.920277595896144	-0.6993750725378046	0.0	0.9091705243427933	-0.8056524422904043	0.0	0.9478357020060586	-0.8252305846555695	0.0	0.9426107552334372	-0.8238914318058478	0.0	0.8966769974977628	-0.8221251867493015	0.0	0.9302968059863672	-0.44032064323847414	0.0	0.9689308665195379	-0.3743272382217924	0.0	0.9709793645866128	-0.4189235020441426	0.0	0.918339149834085	-0.45731853208979956	0.0	0.9494309834932046	-0.5243557587745091	0.0	1.0175349664214337	-0.5457673124459401	0.0	0.9133803643285923	-0.45640287081345277	0.0	0.9294162438633435	-0.5226471372853575	0.0	0.9365064479865771	-0.5440056392911246	0.0
4	0.13389355742296918	0.9178337085461276	-0.6006039523457083	0.0	0.916254663174289	-0.5998019795219312	0.0	0.91995787300956	-0.7005940083539657	0.0	0.9063151390955597	-0.8086936321678571	0.0	0.9490219825476558	-0.8266552341128584	0.0	0.9433717457430485	-0.8313284732173943	0.0	0.8965815650097553	-0.8270713384871515	0.0	0.925527890206434	-0.5985827454472608	0.0	0.9203302947858708	-0.6997644877430188	0.0	0.909005096238396	-0.8056820873079248	0.0	0.9481183655889346	-0.825130084325483	0.0	0.9429017720198914	-0.8237057394595516	0.0	0.8966737849176544	-0.8222146571872135	0.0	0.9300957833606331	-0.4404617877994781	0.0	0.968788054574702	-0.3747831498149435	0.0	0.9707903549097149	-0.4192313299917148	0.0	0.918569575656942	-0.4575051601552685	0.0	0.9489549823136761	-0.5243685905113392	0.0	1.0168885079686791	-0.5463958452051685	0.0	0.9136938405373305	-0.4566871119486045	0.0	0.9303368221356105	-0.5231114974266117	0.0	0.9447208730970009	-0.544537783820807	0.0
5	0.16736694677871147	0.917630500212874	-0.6006980298096557	0.0	0.9160387922449752	-0.5998655488971154	0.0	0.9198410072485248	-0.7007706627425548	0.0	0.9064140423757082	-0.8089698330287101	0.0	0.9492692903807896	-0.8266341176565393	0.0	0.9436257518968016	-0.8312567452752855	0.0	0.8967114695127377	-0.8272670700885091	0.0	0.9252849724016962	-0.5987447679414417	0.0	0.9203517904626989	-0.7002323767416769	0.0	0.9089050249026877	-0.8058615652939004	0.0	0.9486720115954248	-0.8250504468113932	0.0	0.9435759280209314	-0.8234650687295134	0.0	0.8966403264328696	-0.8223977706721892	0.0	0.9300578204266112	-0.4407053198465082	0.0	0.968658054688666	-0.3754137934236182	0.0	0.9706930542442833	-0.41956645189153585	0.0	0.9188522006449003	-0.4576801357657436	0.0	0.9488199600545765	-0.5244183225223753	0.0	1.0164674281055677	-0.547115251586389	0.0	0.9145527478351774	-0.45714616327835317	0.0	0.9321941150869199	-0.523652378989758	0.0	0.9561918361226529	-0.54519890931448	0.0
6	0.2008403361344538	0.9173898004964068	-0.600894345573371	0.0	0.9157385394432169	-0.6000017560804662	0.0	0.9196504820313305	-0.7010175162738257	0.0	0.9066637719501878	-0.8093724070143835	0.0	0.9498474760231795	-0.8268450456858221	0.0	0.9441275926025008	-0.8313207865259803	0.0	0.8969391024536997	-0.8276060419076489	0.0	0.9250279925575092	-0.59894181964754	0.0	0.9204079593328742	-0.7007211973814836	0.0	0.9089017967534373	-0.806124526925541	0.0	0.9494080518050512	-0.8250280485522794	0.0	0.9444828196357224	-0.8232508402985043	0.0	0.8966266379220295	-0.8226382654447455	0.0	0.9301497117521846	-0.4410109747624146	0.0	0.9685364951390025	-0.3761704680724589	0.0	0.9707522472316062	-0.4199835269851539	0.0	0.9191529876588338	-0.4578975784624199	0.0	0.9490728957000912	-0.5245368747185053	0.0	1.0163582165473821	-0.5477713161350125	0.0	0.9156719807608744	-0.45769119280124426	0.0	0.9345907323213564	-0.5242131115623918	0.0	0.9687422060513592	-0.5458301306253395	0.0
7	0.23431372549019608	0.9171692390693826	-0.6011304728772209	0.0	0.9154816681508671	-0.6001992237826825	0.0	0.9194435123353665	-0.7013086276943359	0.0	0.9070011074920555	-0.8098364567649655	0.0	0.950555902193243	-0.8272321219886155	0.0	0.9447544522748634	-0.8314962900536849	0.0	0.8972521570816142	-0.8280449112590221	0.0	0.9248511444296661	-0.599137440048476	0.0	0.9205487643325566	-0.7011535991533954	0.0	0.9089874457619674	-0.8063952043245485	0.0	0.9501525788414682	-0.8250523702734099	0.0	0.9454029779615021	-0.8230868880318251	0.0	0.896653996274918	-0.8229146907245743	0.0	0.9303182425130612	-0.4413167532716327	0.0	0.9684722191861186	-0.3769786478719588	0.0	0.9709725044204506	-0.42051806546911147	0.0	0.9194730448285484	-0.45820984796848546	0.0	0.9497117706106296	-0.5247260130956344	0.0	1.0165914494843382	-0.5482365688196401	0.0	0.9167313042275362	-0.458218879503449	0.0	0.9371096024446806	-0.5246824564404524	0.0	0.9799242030145783	-0.546259439247396	0.0
